Using device: cuda
[float][Skin-Lesion] starting benchmark; total samples: 1002
[float][Skin-Lesion] processed 4/1002 samples (remaining 998)
[float][Skin-Lesion] processed 8/1002 samples (remaining 994)
[float][Skin-Lesion] processed 12/1002 samples (remaining 990)
[float][Skin-Lesion] processed 16/1002 samples (remaining 986)
[float][Skin-Lesion] processed 20/1002 samples (remaining 982)
[float][Skin-Lesion] processed 24/1002 samples (remaining 978)
[float][Skin-Lesion] processed 28/1002 samples (remaining 974)
[float][Skin-Lesion] processed 32/1002 samples (remaining 970)
[float][Skin-Lesion] processed 36/1002 samples (remaining 966)
[float][Skin-Lesion] processed 40/1002 samples (remaining 962)
[float][Skin-Lesion] processed 44/1002 samples (remaining 958)
[float][Skin-Lesion] processed 48/1002 samples (remaining 954)
[float][Skin-Lesion] processed 52/1002 samples (remaining 950)
[float][Skin-Lesion] processed 56/1002 samples (remaining 946)
[float][Skin-Lesion] processed 60/1002 samples (remaining 942)
[float][Skin-Lesion] processed 64/1002 samples (remaining 938)
[float][Skin-Lesion] processed 68/1002 samples (remaining 934)
[float][Skin-Lesion] processed 72/1002 samples (remaining 930)
[float][Skin-Lesion] processed 76/1002 samples (remaining 926)
[float][Skin-Lesion] processed 80/1002 samples (remaining 922)
[float][Skin-Lesion] processed 84/1002 samples (remaining 918)
[float][Skin-Lesion] processed 88/1002 samples (remaining 914)
[float][Skin-Lesion] processed 92/1002 samples (remaining 910)
[float][Skin-Lesion] processed 96/1002 samples (remaining 906)
[float][Skin-Lesion] processed 100/1002 samples (remaining 902)
[float][Skin-Lesion] processed 104/1002 samples (remaining 898)
[float][Skin-Lesion] processed 108/1002 samples (remaining 894)
[float][Skin-Lesion] processed 112/1002 samples (remaining 890)
[float][Skin-Lesion] processed 116/1002 samples (remaining 886)
[float][Skin-Lesion] processed 120/1002 samples (remaining 882)
[float][Skin-Lesion] processed 124/1002 samples (remaining 878)
[float][Skin-Lesion] processed 128/1002 samples (remaining 874)
[float][Skin-Lesion] processed 132/1002 samples (remaining 870)
[float][Skin-Lesion] processed 136/1002 samples (remaining 866)
[float][Skin-Lesion] processed 140/1002 samples (remaining 862)
[float][Skin-Lesion] processed 144/1002 samples (remaining 858)
[float][Skin-Lesion] processed 148/1002 samples (remaining 854)
[float][Skin-Lesion] processed 152/1002 samples (remaining 850)
[float][Skin-Lesion] processed 156/1002 samples (remaining 846)
[float][Skin-Lesion] processed 160/1002 samples (remaining 842)
[float][Skin-Lesion] processed 164/1002 samples (remaining 838)
[float][Skin-Lesion] processed 168/1002 samples (remaining 834)
[float][Skin-Lesion] processed 172/1002 samples (remaining 830)
[float][Skin-Lesion] processed 176/1002 samples (remaining 826)
[float][Skin-Lesion] processed 180/1002 samples (remaining 822)
[float][Skin-Lesion] processed 184/1002 samples (remaining 818)
[float][Skin-Lesion] processed 188/1002 samples (remaining 814)
[float][Skin-Lesion] processed 192/1002 samples (remaining 810)
[float][Skin-Lesion] processed 196/1002 samples (remaining 806)
[float][Skin-Lesion] processed 200/1002 samples (remaining 802)
[float][Skin-Lesion] processed 204/1002 samples (remaining 798)
[float][Skin-Lesion] processed 208/1002 samples (remaining 794)
[float][Skin-Lesion] processed 212/1002 samples (remaining 790)
[float][Skin-Lesion] processed 216/1002 samples (remaining 786)
[float][Skin-Lesion] processed 220/1002 samples (remaining 782)
[float][Skin-Lesion] processed 224/1002 samples (remaining 778)
[float][Skin-Lesion] processed 228/1002 samples (remaining 774)
[float][Skin-Lesion] processed 232/1002 samples (remaining 770)
[float][Skin-Lesion] processed 236/1002 samples (remaining 766)
[float][Skin-Lesion] processed 240/1002 samples (remaining 762)
[float][Skin-Lesion] processed 244/1002 samples (remaining 758)
[float][Skin-Lesion] processed 248/1002 samples (remaining 754)
[float][Skin-Lesion] processed 252/1002 samples (remaining 750)
[float][Skin-Lesion] processed 256/1002 samples (remaining 746)
[float][Skin-Lesion] processed 260/1002 samples (remaining 742)
[float][Skin-Lesion] processed 264/1002 samples (remaining 738)
[float][Skin-Lesion] processed 268/1002 samples (remaining 734)
[float][Skin-Lesion] processed 272/1002 samples (remaining 730)
[float][Skin-Lesion] processed 276/1002 samples (remaining 726)
[float][Skin-Lesion] processed 280/1002 samples (remaining 722)
[float][Skin-Lesion] processed 284/1002 samples (remaining 718)
[float][Skin-Lesion] processed 288/1002 samples (remaining 714)
[float][Skin-Lesion] processed 292/1002 samples (remaining 710)
[float][Skin-Lesion] processed 296/1002 samples (remaining 706)
[float][Skin-Lesion] processed 300/1002 samples (remaining 702)
[float][Skin-Lesion] processed 304/1002 samples (remaining 698)
[float][Skin-Lesion] processed 308/1002 samples (remaining 694)
[float][Skin-Lesion] processed 312/1002 samples (remaining 690)
[float][Skin-Lesion] processed 316/1002 samples (remaining 686)
[float][Skin-Lesion] processed 320/1002 samples (remaining 682)
[float][Skin-Lesion] processed 324/1002 samples (remaining 678)
[float][Skin-Lesion] processed 328/1002 samples (remaining 674)
[float][Skin-Lesion] processed 332/1002 samples (remaining 670)
[float][Skin-Lesion] processed 336/1002 samples (remaining 666)
[float][Skin-Lesion] processed 340/1002 samples (remaining 662)
[float][Skin-Lesion] processed 344/1002 samples (remaining 658)
[float][Skin-Lesion] processed 348/1002 samples (remaining 654)
[float][Skin-Lesion] processed 352/1002 samples (remaining 650)
[float][Skin-Lesion] processed 356/1002 samples (remaining 646)
[float][Skin-Lesion] processed 360/1002 samples (remaining 642)
[float][Skin-Lesion] processed 364/1002 samples (remaining 638)
[float][Skin-Lesion] processed 368/1002 samples (remaining 634)
[float][Skin-Lesion] processed 372/1002 samples (remaining 630)
[float][Skin-Lesion] processed 376/1002 samples (remaining 626)
[float][Skin-Lesion] processed 380/1002 samples (remaining 622)
[float][Skin-Lesion] processed 384/1002 samples (remaining 618)
[float][Skin-Lesion] processed 388/1002 samples (remaining 614)
[float][Skin-Lesion] processed 392/1002 samples (remaining 610)
[float][Skin-Lesion] processed 396/1002 samples (remaining 606)
[float][Skin-Lesion] processed 400/1002 samples (remaining 602)
[float][Skin-Lesion] processed 404/1002 samples (remaining 598)
[float][Skin-Lesion] processed 408/1002 samples (remaining 594)
[float][Skin-Lesion] processed 412/1002 samples (remaining 590)
[float][Skin-Lesion] processed 416/1002 samples (remaining 586)
[float][Skin-Lesion] processed 420/1002 samples (remaining 582)
[float][Skin-Lesion] processed 424/1002 samples (remaining 578)
[float][Skin-Lesion] processed 428/1002 samples (remaining 574)
[float][Skin-Lesion] processed 432/1002 samples (remaining 570)
[float][Skin-Lesion] processed 436/1002 samples (remaining 566)
[float][Skin-Lesion] processed 440/1002 samples (remaining 562)
[float][Skin-Lesion] processed 444/1002 samples (remaining 558)
[float][Skin-Lesion] processed 448/1002 samples (remaining 554)
[float][Skin-Lesion] processed 452/1002 samples (remaining 550)
[float][Skin-Lesion] processed 456/1002 samples (remaining 546)
[float][Skin-Lesion] processed 460/1002 samples (remaining 542)
[float][Skin-Lesion] processed 464/1002 samples (remaining 538)
[float][Skin-Lesion] processed 468/1002 samples (remaining 534)
[float][Skin-Lesion] processed 472/1002 samples (remaining 530)
[float][Skin-Lesion] processed 476/1002 samples (remaining 526)
[float][Skin-Lesion] processed 480/1002 samples (remaining 522)
[float][Skin-Lesion] processed 484/1002 samples (remaining 518)
[float][Skin-Lesion] processed 488/1002 samples (remaining 514)
[float][Skin-Lesion] processed 492/1002 samples (remaining 510)
[float][Skin-Lesion] processed 496/1002 samples (remaining 506)
[float][Skin-Lesion] processed 500/1002 samples (remaining 502)
[float][Skin-Lesion] processed 504/1002 samples (remaining 498)
[float][Skin-Lesion] processed 508/1002 samples (remaining 494)
[float][Skin-Lesion] processed 512/1002 samples (remaining 490)
[float][Skin-Lesion] processed 516/1002 samples (remaining 486)
[float][Skin-Lesion] processed 520/1002 samples (remaining 482)
[float][Skin-Lesion] processed 524/1002 samples (remaining 478)
[float][Skin-Lesion] processed 528/1002 samples (remaining 474)
[float][Skin-Lesion] processed 532/1002 samples (remaining 470)
[float][Skin-Lesion] processed 536/1002 samples (remaining 466)
[float][Skin-Lesion] processed 540/1002 samples (remaining 462)
[float][Skin-Lesion] processed 544/1002 samples (remaining 458)
[float][Skin-Lesion] processed 548/1002 samples (remaining 454)
[float][Skin-Lesion] processed 552/1002 samples (remaining 450)
[float][Skin-Lesion] processed 556/1002 samples (remaining 446)
[float][Skin-Lesion] processed 560/1002 samples (remaining 442)
[float][Skin-Lesion] processed 564/1002 samples (remaining 438)
[float][Skin-Lesion] processed 568/1002 samples (remaining 434)
[float][Skin-Lesion] processed 572/1002 samples (remaining 430)
[float][Skin-Lesion] processed 576/1002 samples (remaining 426)
[float][Skin-Lesion] processed 580/1002 samples (remaining 422)
[float][Skin-Lesion] processed 584/1002 samples (remaining 418)
[float][Skin-Lesion] processed 588/1002 samples (remaining 414)
[float][Skin-Lesion] processed 592/1002 samples (remaining 410)
[float][Skin-Lesion] processed 596/1002 samples (remaining 406)
[float][Skin-Lesion] processed 600/1002 samples (remaining 402)
[float][Skin-Lesion] processed 604/1002 samples (remaining 398)
[float][Skin-Lesion] processed 608/1002 samples (remaining 394)
[float][Skin-Lesion] processed 612/1002 samples (remaining 390)
[float][Skin-Lesion] processed 616/1002 samples (remaining 386)
[float][Skin-Lesion] processed 620/1002 samples (remaining 382)
[float][Skin-Lesion] processed 624/1002 samples (remaining 378)
[float][Skin-Lesion] processed 628/1002 samples (remaining 374)
[float][Skin-Lesion] processed 632/1002 samples (remaining 370)
[float][Skin-Lesion] processed 636/1002 samples (remaining 366)
[float][Skin-Lesion] processed 640/1002 samples (remaining 362)
[float][Skin-Lesion] processed 644/1002 samples (remaining 358)
[float][Skin-Lesion] processed 648/1002 samples (remaining 354)
[float][Skin-Lesion] processed 652/1002 samples (remaining 350)
[float][Skin-Lesion] processed 656/1002 samples (remaining 346)
[float][Skin-Lesion] processed 660/1002 samples (remaining 342)
[float][Skin-Lesion] processed 664/1002 samples (remaining 338)
[float][Skin-Lesion] processed 668/1002 samples (remaining 334)
[float][Skin-Lesion] processed 672/1002 samples (remaining 330)
[float][Skin-Lesion] processed 676/1002 samples (remaining 326)
[float][Skin-Lesion] processed 680/1002 samples (remaining 322)
[float][Skin-Lesion] processed 684/1002 samples (remaining 318)
[float][Skin-Lesion] processed 688/1002 samples (remaining 314)
[float][Skin-Lesion] processed 692/1002 samples (remaining 310)
[float][Skin-Lesion] processed 696/1002 samples (remaining 306)
[float][Skin-Lesion] processed 700/1002 samples (remaining 302)
[float][Skin-Lesion] processed 704/1002 samples (remaining 298)
[float][Skin-Lesion] processed 708/1002 samples (remaining 294)
[float][Skin-Lesion] processed 712/1002 samples (remaining 290)
[float][Skin-Lesion] processed 716/1002 samples (remaining 286)
[float][Skin-Lesion] processed 720/1002 samples (remaining 282)
[float][Skin-Lesion] processed 724/1002 samples (remaining 278)
[float][Skin-Lesion] processed 728/1002 samples (remaining 274)
[float][Skin-Lesion] processed 732/1002 samples (remaining 270)
[float][Skin-Lesion] processed 736/1002 samples (remaining 266)
[float][Skin-Lesion] processed 740/1002 samples (remaining 262)
[float][Skin-Lesion] processed 744/1002 samples (remaining 258)
[float][Skin-Lesion] processed 748/1002 samples (remaining 254)
[float][Skin-Lesion] processed 752/1002 samples (remaining 250)
[float][Skin-Lesion] processed 756/1002 samples (remaining 246)
[float][Skin-Lesion] processed 760/1002 samples (remaining 242)
[float][Skin-Lesion] processed 764/1002 samples (remaining 238)
[float][Skin-Lesion] processed 768/1002 samples (remaining 234)
[float][Skin-Lesion] processed 772/1002 samples (remaining 230)
[float][Skin-Lesion] processed 776/1002 samples (remaining 226)
[float][Skin-Lesion] processed 780/1002 samples (remaining 222)
[float][Skin-Lesion] processed 784/1002 samples (remaining 218)
[float][Skin-Lesion] processed 788/1002 samples (remaining 214)
[float][Skin-Lesion] processed 792/1002 samples (remaining 210)
[float][Skin-Lesion] processed 796/1002 samples (remaining 206)
[float][Skin-Lesion] processed 800/1002 samples (remaining 202)
[float][Skin-Lesion] processed 804/1002 samples (remaining 198)
[float][Skin-Lesion] processed 808/1002 samples (remaining 194)
[float][Skin-Lesion] processed 812/1002 samples (remaining 190)
[float][Skin-Lesion] processed 816/1002 samples (remaining 186)
[float][Skin-Lesion] processed 820/1002 samples (remaining 182)
[float][Skin-Lesion] processed 824/1002 samples (remaining 178)
[float][Skin-Lesion] processed 828/1002 samples (remaining 174)
[float][Skin-Lesion] processed 832/1002 samples (remaining 170)
[float][Skin-Lesion] processed 836/1002 samples (remaining 166)
[float][Skin-Lesion] processed 840/1002 samples (remaining 162)
[float][Skin-Lesion] processed 844/1002 samples (remaining 158)
[float][Skin-Lesion] processed 848/1002 samples (remaining 154)
[float][Skin-Lesion] processed 852/1002 samples (remaining 150)
[float][Skin-Lesion] processed 856/1002 samples (remaining 146)
[float][Skin-Lesion] processed 860/1002 samples (remaining 142)
[float][Skin-Lesion] processed 864/1002 samples (remaining 138)
[float][Skin-Lesion] processed 868/1002 samples (remaining 134)
[float][Skin-Lesion] processed 872/1002 samples (remaining 130)
[float][Skin-Lesion] processed 876/1002 samples (remaining 126)
[float][Skin-Lesion] processed 880/1002 samples (remaining 122)
[float][Skin-Lesion] processed 884/1002 samples (remaining 118)
[float][Skin-Lesion] processed 888/1002 samples (remaining 114)
[float][Skin-Lesion] processed 892/1002 samples (remaining 110)
[float][Skin-Lesion] processed 896/1002 samples (remaining 106)
[float][Skin-Lesion] processed 900/1002 samples (remaining 102)
[float][Skin-Lesion] processed 904/1002 samples (remaining 98)
[float][Skin-Lesion] processed 908/1002 samples (remaining 94)
[float][Skin-Lesion] processed 912/1002 samples (remaining 90)
[float][Skin-Lesion] processed 916/1002 samples (remaining 86)
[float][Skin-Lesion] processed 920/1002 samples (remaining 82)
[float][Skin-Lesion] processed 924/1002 samples (remaining 78)
[float][Skin-Lesion] processed 928/1002 samples (remaining 74)
[float][Skin-Lesion] processed 932/1002 samples (remaining 70)
[float][Skin-Lesion] processed 936/1002 samples (remaining 66)
[float][Skin-Lesion] processed 940/1002 samples (remaining 62)
[float][Skin-Lesion] processed 944/1002 samples (remaining 58)
[float][Skin-Lesion] processed 948/1002 samples (remaining 54)
[float][Skin-Lesion] processed 952/1002 samples (remaining 50)
[float][Skin-Lesion] processed 956/1002 samples (remaining 46)
[float][Skin-Lesion] processed 960/1002 samples (remaining 42)
[float][Skin-Lesion] processed 964/1002 samples (remaining 38)
[float][Skin-Lesion] processed 968/1002 samples (remaining 34)
[float][Skin-Lesion] processed 972/1002 samples (remaining 30)
[float][Skin-Lesion] processed 976/1002 samples (remaining 26)
[float][Skin-Lesion] processed 980/1002 samples (remaining 22)
[float][Skin-Lesion] processed 984/1002 samples (remaining 18)
[float][Skin-Lesion] processed 988/1002 samples (remaining 14)
[float][Skin-Lesion] processed 992/1002 samples (remaining 10)
[float][Skin-Lesion] processed 996/1002 samples (remaining 6)
[float][Skin-Lesion] processed 1000/1002 samples (remaining 2)
[float][Skin-Lesion] processed 1002/1002 samples (remaining 0)
[fixed-point][Skin-Lesion] starting benchmark; total samples: 1002
[fixed-point][Skin-Lesion] processed 4/1002 samples (remaining 998)
[fixed-point][Skin-Lesion] processed 8/1002 samples (remaining 994)
[fixed-point][Skin-Lesion] processed 12/1002 samples (remaining 990)
[fixed-point][Skin-Lesion] processed 16/1002 samples (remaining 986)
[fixed-point][Skin-Lesion] processed 20/1002 samples (remaining 982)
[fixed-point][Skin-Lesion] processed 24/1002 samples (remaining 978)
[fixed-point][Skin-Lesion] processed 28/1002 samples (remaining 974)
[fixed-point][Skin-Lesion] processed 32/1002 samples (remaining 970)
[fixed-point][Skin-Lesion] processed 36/1002 samples (remaining 966)
[fixed-point][Skin-Lesion] processed 40/1002 samples (remaining 962)
[fixed-point][Skin-Lesion] processed 44/1002 samples (remaining 958)
[fixed-point][Skin-Lesion] processed 48/1002 samples (remaining 954)
[fixed-point][Skin-Lesion] processed 52/1002 samples (remaining 950)
[fixed-point][Skin-Lesion] processed 56/1002 samples (remaining 946)
[fixed-point][Skin-Lesion] processed 60/1002 samples (remaining 942)
[fixed-point][Skin-Lesion] processed 64/1002 samples (remaining 938)
[fixed-point][Skin-Lesion] processed 68/1002 samples (remaining 934)
[fixed-point][Skin-Lesion] processed 72/1002 samples (remaining 930)
[fixed-point][Skin-Lesion] processed 76/1002 samples (remaining 926)
[fixed-point][Skin-Lesion] processed 80/1002 samples (remaining 922)
[fixed-point][Skin-Lesion] processed 84/1002 samples (remaining 918)
[fixed-point][Skin-Lesion] processed 88/1002 samples (remaining 914)
[fixed-point][Skin-Lesion] processed 92/1002 samples (remaining 910)
[fixed-point][Skin-Lesion] processed 96/1002 samples (remaining 906)
[fixed-point][Skin-Lesion] processed 100/1002 samples (remaining 902)
[fixed-point][Skin-Lesion] processed 104/1002 samples (remaining 898)
[fixed-point][Skin-Lesion] processed 108/1002 samples (remaining 894)
[fixed-point][Skin-Lesion] processed 112/1002 samples (remaining 890)
[fixed-point][Skin-Lesion] processed 116/1002 samples (remaining 886)
[fixed-point][Skin-Lesion] processed 120/1002 samples (remaining 882)
[fixed-point][Skin-Lesion] processed 124/1002 samples (remaining 878)
[fixed-point][Skin-Lesion] processed 128/1002 samples (remaining 874)
[fixed-point][Skin-Lesion] processed 132/1002 samples (remaining 870)
[fixed-point][Skin-Lesion] processed 136/1002 samples (remaining 866)
[fixed-point][Skin-Lesion] processed 140/1002 samples (remaining 862)
[fixed-point][Skin-Lesion] processed 144/1002 samples (remaining 858)
[fixed-point][Skin-Lesion] processed 148/1002 samples (remaining 854)
[fixed-point][Skin-Lesion] processed 152/1002 samples (remaining 850)
[fixed-point][Skin-Lesion] processed 156/1002 samples (remaining 846)
[fixed-point][Skin-Lesion] processed 160/1002 samples (remaining 842)
[fixed-point][Skin-Lesion] processed 164/1002 samples (remaining 838)
[fixed-point][Skin-Lesion] processed 168/1002 samples (remaining 834)
[fixed-point][Skin-Lesion] processed 172/1002 samples (remaining 830)
[fixed-point][Skin-Lesion] processed 176/1002 samples (remaining 826)
[fixed-point][Skin-Lesion] processed 180/1002 samples (remaining 822)
[fixed-point][Skin-Lesion] processed 184/1002 samples (remaining 818)
[fixed-point][Skin-Lesion] processed 188/1002 samples (remaining 814)
[fixed-point][Skin-Lesion] processed 192/1002 samples (remaining 810)
[fixed-point][Skin-Lesion] processed 196/1002 samples (remaining 806)
[fixed-point][Skin-Lesion] processed 200/1002 samples (remaining 802)
[fixed-point][Skin-Lesion] processed 204/1002 samples (remaining 798)
[fixed-point][Skin-Lesion] processed 208/1002 samples (remaining 794)
[fixed-point][Skin-Lesion] processed 212/1002 samples (remaining 790)
[fixed-point][Skin-Lesion] processed 216/1002 samples (remaining 786)
[fixed-point][Skin-Lesion] processed 220/1002 samples (remaining 782)
[fixed-point][Skin-Lesion] processed 224/1002 samples (remaining 778)
[fixed-point][Skin-Lesion] processed 228/1002 samples (remaining 774)
[fixed-point][Skin-Lesion] processed 232/1002 samples (remaining 770)
[fixed-point][Skin-Lesion] processed 236/1002 samples (remaining 766)
[fixed-point][Skin-Lesion] processed 240/1002 samples (remaining 762)
[fixed-point][Skin-Lesion] processed 244/1002 samples (remaining 758)
[fixed-point][Skin-Lesion] processed 248/1002 samples (remaining 754)
[fixed-point][Skin-Lesion] processed 252/1002 samples (remaining 750)
[fixed-point][Skin-Lesion] processed 256/1002 samples (remaining 746)
[fixed-point][Skin-Lesion] processed 260/1002 samples (remaining 742)
[fixed-point][Skin-Lesion] processed 264/1002 samples (remaining 738)
[fixed-point][Skin-Lesion] processed 268/1002 samples (remaining 734)
[fixed-point][Skin-Lesion] processed 272/1002 samples (remaining 730)
[fixed-point][Skin-Lesion] processed 276/1002 samples (remaining 726)
[fixed-point][Skin-Lesion] processed 280/1002 samples (remaining 722)
[fixed-point][Skin-Lesion] processed 284/1002 samples (remaining 718)
[fixed-point][Skin-Lesion] processed 288/1002 samples (remaining 714)
[fixed-point][Skin-Lesion] processed 292/1002 samples (remaining 710)
[fixed-point][Skin-Lesion] processed 296/1002 samples (remaining 706)
[fixed-point][Skin-Lesion] processed 300/1002 samples (remaining 702)
[fixed-point][Skin-Lesion] processed 304/1002 samples (remaining 698)
[fixed-point][Skin-Lesion] processed 308/1002 samples (remaining 694)
[fixed-point][Skin-Lesion] processed 312/1002 samples (remaining 690)
[fixed-point][Skin-Lesion] processed 316/1002 samples (remaining 686)
[fixed-point][Skin-Lesion] processed 320/1002 samples (remaining 682)
[fixed-point][Skin-Lesion] processed 324/1002 samples (remaining 678)
[fixed-point][Skin-Lesion] processed 328/1002 samples (remaining 674)
[fixed-point][Skin-Lesion] processed 332/1002 samples (remaining 670)
[fixed-point][Skin-Lesion] processed 336/1002 samples (remaining 666)
[fixed-point][Skin-Lesion] processed 340/1002 samples (remaining 662)
[fixed-point][Skin-Lesion] processed 344/1002 samples (remaining 658)
[fixed-point][Skin-Lesion] processed 348/1002 samples (remaining 654)
[fixed-point][Skin-Lesion] processed 352/1002 samples (remaining 650)
[fixed-point][Skin-Lesion] processed 356/1002 samples (remaining 646)
[fixed-point][Skin-Lesion] processed 360/1002 samples (remaining 642)
[fixed-point][Skin-Lesion] processed 364/1002 samples (remaining 638)
[fixed-point][Skin-Lesion] processed 368/1002 samples (remaining 634)
[fixed-point][Skin-Lesion] processed 372/1002 samples (remaining 630)
[fixed-point][Skin-Lesion] processed 376/1002 samples (remaining 626)
[fixed-point][Skin-Lesion] processed 380/1002 samples (remaining 622)
[fixed-point][Skin-Lesion] processed 384/1002 samples (remaining 618)
[fixed-point][Skin-Lesion] processed 388/1002 samples (remaining 614)
[fixed-point][Skin-Lesion] processed 392/1002 samples (remaining 610)
[fixed-point][Skin-Lesion] processed 396/1002 samples (remaining 606)
[fixed-point][Skin-Lesion] processed 400/1002 samples (remaining 602)
[fixed-point][Skin-Lesion] processed 404/1002 samples (remaining 598)
[fixed-point][Skin-Lesion] processed 408/1002 samples (remaining 594)
[fixed-point][Skin-Lesion] processed 412/1002 samples (remaining 590)
[fixed-point][Skin-Lesion] processed 416/1002 samples (remaining 586)
[fixed-point][Skin-Lesion] processed 420/1002 samples (remaining 582)
[fixed-point][Skin-Lesion] processed 424/1002 samples (remaining 578)
[fixed-point][Skin-Lesion] processed 428/1002 samples (remaining 574)
[fixed-point][Skin-Lesion] processed 432/1002 samples (remaining 570)
[fixed-point][Skin-Lesion] processed 436/1002 samples (remaining 566)
[fixed-point][Skin-Lesion] processed 440/1002 samples (remaining 562)
[fixed-point][Skin-Lesion] processed 444/1002 samples (remaining 558)
[fixed-point][Skin-Lesion] processed 448/1002 samples (remaining 554)
[fixed-point][Skin-Lesion] processed 452/1002 samples (remaining 550)
[fixed-point][Skin-Lesion] processed 456/1002 samples (remaining 546)
[fixed-point][Skin-Lesion] processed 460/1002 samples (remaining 542)
[fixed-point][Skin-Lesion] processed 464/1002 samples (remaining 538)
[fixed-point][Skin-Lesion] processed 468/1002 samples (remaining 534)
[fixed-point][Skin-Lesion] processed 472/1002 samples (remaining 530)
[fixed-point][Skin-Lesion] processed 476/1002 samples (remaining 526)
[fixed-point][Skin-Lesion] processed 480/1002 samples (remaining 522)
[fixed-point][Skin-Lesion] processed 484/1002 samples (remaining 518)
[fixed-point][Skin-Lesion] processed 488/1002 samples (remaining 514)
[fixed-point][Skin-Lesion] processed 492/1002 samples (remaining 510)
[fixed-point][Skin-Lesion] processed 496/1002 samples (remaining 506)
[fixed-point][Skin-Lesion] processed 500/1002 samples (remaining 502)
[fixed-point][Skin-Lesion] processed 504/1002 samples (remaining 498)
[fixed-point][Skin-Lesion] processed 508/1002 samples (remaining 494)
[fixed-point][Skin-Lesion] processed 512/1002 samples (remaining 490)
[fixed-point][Skin-Lesion] processed 516/1002 samples (remaining 486)
[fixed-point][Skin-Lesion] processed 520/1002 samples (remaining 482)
[fixed-point][Skin-Lesion] processed 524/1002 samples (remaining 478)
[fixed-point][Skin-Lesion] processed 528/1002 samples (remaining 474)
[fixed-point][Skin-Lesion] processed 532/1002 samples (remaining 470)
[fixed-point][Skin-Lesion] processed 536/1002 samples (remaining 466)
[fixed-point][Skin-Lesion] processed 540/1002 samples (remaining 462)
[fixed-point][Skin-Lesion] processed 544/1002 samples (remaining 458)
[fixed-point][Skin-Lesion] processed 548/1002 samples (remaining 454)
[fixed-point][Skin-Lesion] processed 552/1002 samples (remaining 450)
[fixed-point][Skin-Lesion] processed 556/1002 samples (remaining 446)
[fixed-point][Skin-Lesion] processed 560/1002 samples (remaining 442)
[fixed-point][Skin-Lesion] processed 564/1002 samples (remaining 438)
[fixed-point][Skin-Lesion] processed 568/1002 samples (remaining 434)
[fixed-point][Skin-Lesion] processed 572/1002 samples (remaining 430)
[fixed-point][Skin-Lesion] processed 576/1002 samples (remaining 426)
[fixed-point][Skin-Lesion] processed 580/1002 samples (remaining 422)
[fixed-point][Skin-Lesion] processed 584/1002 samples (remaining 418)
[fixed-point][Skin-Lesion] processed 588/1002 samples (remaining 414)
[fixed-point][Skin-Lesion] processed 592/1002 samples (remaining 410)
[fixed-point][Skin-Lesion] processed 596/1002 samples (remaining 406)
[fixed-point][Skin-Lesion] processed 600/1002 samples (remaining 402)
[fixed-point][Skin-Lesion] processed 604/1002 samples (remaining 398)
[fixed-point][Skin-Lesion] processed 608/1002 samples (remaining 394)
[fixed-point][Skin-Lesion] processed 612/1002 samples (remaining 390)
[fixed-point][Skin-Lesion] processed 616/1002 samples (remaining 386)
[fixed-point][Skin-Lesion] processed 620/1002 samples (remaining 382)
[fixed-point][Skin-Lesion] processed 624/1002 samples (remaining 378)
[fixed-point][Skin-Lesion] processed 628/1002 samples (remaining 374)
[fixed-point][Skin-Lesion] processed 632/1002 samples (remaining 370)
[fixed-point][Skin-Lesion] processed 636/1002 samples (remaining 366)
[fixed-point][Skin-Lesion] processed 640/1002 samples (remaining 362)
[fixed-point][Skin-Lesion] processed 644/1002 samples (remaining 358)
[fixed-point][Skin-Lesion] processed 648/1002 samples (remaining 354)
[fixed-point][Skin-Lesion] processed 652/1002 samples (remaining 350)
[fixed-point][Skin-Lesion] processed 656/1002 samples (remaining 346)
[fixed-point][Skin-Lesion] processed 660/1002 samples (remaining 342)
[fixed-point][Skin-Lesion] processed 664/1002 samples (remaining 338)
[fixed-point][Skin-Lesion] processed 668/1002 samples (remaining 334)
[fixed-point][Skin-Lesion] processed 672/1002 samples (remaining 330)
[fixed-point][Skin-Lesion] processed 676/1002 samples (remaining 326)
[fixed-point][Skin-Lesion] processed 680/1002 samples (remaining 322)
[fixed-point][Skin-Lesion] processed 684/1002 samples (remaining 318)
[fixed-point][Skin-Lesion] processed 688/1002 samples (remaining 314)
[fixed-point][Skin-Lesion] processed 692/1002 samples (remaining 310)
[fixed-point][Skin-Lesion] processed 696/1002 samples (remaining 306)
[fixed-point][Skin-Lesion] processed 700/1002 samples (remaining 302)
[fixed-point][Skin-Lesion] processed 704/1002 samples (remaining 298)
[fixed-point][Skin-Lesion] processed 708/1002 samples (remaining 294)
[fixed-point][Skin-Lesion] processed 712/1002 samples (remaining 290)
[fixed-point][Skin-Lesion] processed 716/1002 samples (remaining 286)
[fixed-point][Skin-Lesion] processed 720/1002 samples (remaining 282)
[fixed-point][Skin-Lesion] processed 724/1002 samples (remaining 278)
[fixed-point][Skin-Lesion] processed 728/1002 samples (remaining 274)
[fixed-point][Skin-Lesion] processed 732/1002 samples (remaining 270)
[fixed-point][Skin-Lesion] processed 736/1002 samples (remaining 266)
[fixed-point][Skin-Lesion] processed 740/1002 samples (remaining 262)
[fixed-point][Skin-Lesion] processed 744/1002 samples (remaining 258)
[fixed-point][Skin-Lesion] processed 748/1002 samples (remaining 254)
[fixed-point][Skin-Lesion] processed 752/1002 samples (remaining 250)
[fixed-point][Skin-Lesion] processed 756/1002 samples (remaining 246)
[fixed-point][Skin-Lesion] processed 760/1002 samples (remaining 242)
[fixed-point][Skin-Lesion] processed 764/1002 samples (remaining 238)
[fixed-point][Skin-Lesion] processed 768/1002 samples (remaining 234)
[fixed-point][Skin-Lesion] processed 772/1002 samples (remaining 230)
[fixed-point][Skin-Lesion] processed 776/1002 samples (remaining 226)
[fixed-point][Skin-Lesion] processed 780/1002 samples (remaining 222)
[fixed-point][Skin-Lesion] processed 784/1002 samples (remaining 218)
[fixed-point][Skin-Lesion] processed 788/1002 samples (remaining 214)
[fixed-point][Skin-Lesion] processed 792/1002 samples (remaining 210)
[fixed-point][Skin-Lesion] processed 796/1002 samples (remaining 206)
[fixed-point][Skin-Lesion] processed 800/1002 samples (remaining 202)
[fixed-point][Skin-Lesion] processed 804/1002 samples (remaining 198)
[fixed-point][Skin-Lesion] processed 808/1002 samples (remaining 194)
[fixed-point][Skin-Lesion] processed 812/1002 samples (remaining 190)
[fixed-point][Skin-Lesion] processed 816/1002 samples (remaining 186)
[fixed-point][Skin-Lesion] processed 820/1002 samples (remaining 182)
[fixed-point][Skin-Lesion] processed 824/1002 samples (remaining 178)
[fixed-point][Skin-Lesion] processed 828/1002 samples (remaining 174)
[fixed-point][Skin-Lesion] processed 832/1002 samples (remaining 170)
[fixed-point][Skin-Lesion] processed 836/1002 samples (remaining 166)
[fixed-point][Skin-Lesion] processed 840/1002 samples (remaining 162)
[fixed-point][Skin-Lesion] processed 844/1002 samples (remaining 158)
[fixed-point][Skin-Lesion] processed 848/1002 samples (remaining 154)
[fixed-point][Skin-Lesion] processed 852/1002 samples (remaining 150)
[fixed-point][Skin-Lesion] processed 856/1002 samples (remaining 146)
[fixed-point][Skin-Lesion] processed 860/1002 samples (remaining 142)
[fixed-point][Skin-Lesion] processed 864/1002 samples (remaining 138)
[fixed-point][Skin-Lesion] processed 868/1002 samples (remaining 134)
[fixed-point][Skin-Lesion] processed 872/1002 samples (remaining 130)
[fixed-point][Skin-Lesion] processed 876/1002 samples (remaining 126)
[fixed-point][Skin-Lesion] processed 880/1002 samples (remaining 122)
[fixed-point][Skin-Lesion] processed 884/1002 samples (remaining 118)
[fixed-point][Skin-Lesion] processed 888/1002 samples (remaining 114)
[fixed-point][Skin-Lesion] processed 892/1002 samples (remaining 110)
[fixed-point][Skin-Lesion] processed 896/1002 samples (remaining 106)
[fixed-point][Skin-Lesion] processed 900/1002 samples (remaining 102)
[fixed-point][Skin-Lesion] processed 904/1002 samples (remaining 98)
[fixed-point][Skin-Lesion] processed 908/1002 samples (remaining 94)
[fixed-point][Skin-Lesion] processed 912/1002 samples (remaining 90)
[fixed-point][Skin-Lesion] processed 916/1002 samples (remaining 86)
[fixed-point][Skin-Lesion] processed 920/1002 samples (remaining 82)
[fixed-point][Skin-Lesion] processed 924/1002 samples (remaining 78)
[fixed-point][Skin-Lesion] processed 928/1002 samples (remaining 74)
[fixed-point][Skin-Lesion] processed 932/1002 samples (remaining 70)
[fixed-point][Skin-Lesion] processed 936/1002 samples (remaining 66)
[fixed-point][Skin-Lesion] processed 940/1002 samples (remaining 62)
[fixed-point][Skin-Lesion] processed 944/1002 samples (remaining 58)
[fixed-point][Skin-Lesion] processed 948/1002 samples (remaining 54)
[fixed-point][Skin-Lesion] processed 952/1002 samples (remaining 50)
[fixed-point][Skin-Lesion] processed 956/1002 samples (remaining 46)
[fixed-point][Skin-Lesion] processed 960/1002 samples (remaining 42)
[fixed-point][Skin-Lesion] processed 964/1002 samples (remaining 38)
[fixed-point][Skin-Lesion] processed 968/1002 samples (remaining 34)
[fixed-point][Skin-Lesion] processed 972/1002 samples (remaining 30)
[fixed-point][Skin-Lesion] processed 976/1002 samples (remaining 26)
[fixed-point][Skin-Lesion] processed 980/1002 samples (remaining 22)
[fixed-point][Skin-Lesion] processed 984/1002 samples (remaining 18)
[fixed-point][Skin-Lesion] processed 988/1002 samples (remaining 14)
[fixed-point][Skin-Lesion] processed 992/1002 samples (remaining 10)
[fixed-point][Skin-Lesion] processed 996/1002 samples (remaining 6)
[fixed-point][Skin-Lesion] processed 1000/1002 samples (remaining 2)
[fixed-point][Skin-Lesion] processed 1002/1002 samples (remaining 0)
[float][Flood] starting benchmark; total samples: 29
[float][Flood] processed 4/29 samples (remaining 25)
[float][Flood] processed 8/29 samples (remaining 21)
[float][Flood] processed 12/29 samples (remaining 17)
[float][Flood] processed 16/29 samples (remaining 13)
[float][Flood] processed 20/29 samples (remaining 9)
[float][Flood] processed 24/29 samples (remaining 5)
[float][Flood] processed 28/29 samples (remaining 1)
[float][Flood] processed 29/29 samples (remaining 0)
[fixed-point][Flood] starting benchmark; total samples: 29
[fixed-point][Flood] processed 4/29 samples (remaining 25)
[fixed-point][Flood] processed 8/29 samples (remaining 21)
[fixed-point][Flood] processed 12/29 samples (remaining 17)
[fixed-point][Flood] processed 16/29 samples (remaining 13)
[fixed-point][Flood] processed 20/29 samples (remaining 9)
[fixed-point][Flood] processed 24/29 samples (remaining 5)
[fixed-point][Flood] processed 28/29 samples (remaining 1)
[fixed-point][Flood] processed 29/29 samples (remaining 0)
Saved benchmark_results.json with:
  Skin-Lesion: float(dice=0.8387, iou=0.7223, acc=0.9191, f1=0.8387), integer(dice=0.8387, iou=0.7223, acc=0.9191, f1=0.8387)
  Flood: float(dice=0.8727, iou=0.7741, acc=0.8990, f1=0.8727), integer(dice=0.8727, iou=0.7741, acc=0.8990, f1=0.8727)
